<svg xmlns="http://www.w3.org/2000/svg" width="40" height="40" viewBox="0 0 40 40">
  <circle cx="20" cy="20" r="20" fill="#23AF91" />
  <g stroke-width="1" fill-rule="evenodd" transform="translate(7.5, 6)" fill="white">
    <path
      d="M8.07119266,13.987156 L16.3530275,22.2702752 L21.5805505,17.0427523 C22.5153013,16.2010873 23.9453692,16.2385301 24.8347957,17.1279566 C25.7242222,18.0173831 25.761665,19.447451 24.92,20.3822018 L18.0214679,27.2820183 C17.0948346,28.1933271 15.6086516,28.1933271 14.6820183,27.2820183 L4.72917431,17.3266055 L4.72917431,23.2438532 C4.72917431,24.5497786 3.67051258,25.6084404 2.36458716,25.6084404 C1.05866173,25.6084404 0,24.5497786 0,23.2438532 L0,4.72275229 C0,3.41682687 1.05866173,2.35816514 2.36458716,2.35816514 C3.67051258,2.35816514 4.72917431,3.41682687 4.72917431,4.72275229 L4.72917431,10.64 L14.6807339,0.687155963 C15.6070847,-0.224842783 17.0938328,-0.224842783 18.0201835,0.687155963 L24.9238532,7.58568807 C25.7655182,8.52043892 25.7280754,9.95050679 24.8386489,10.8399333 C23.9492224,11.7293598 22.5191545,11.7668026 21.5844037,10.9251376 L16.3568807,5.69761468 L8.07119266,13.987156 Z M16.3568807,11.62 L16.3568807,11.62 C15.3993388,11.6194804 14.5357937,12.19589 14.1689982,13.0803943 C13.8022027,13.9648986 14.0044094,14.9832652 14.6813101,15.6605334 C15.3582109,16.3378016 16.3764675,16.5405609 17.2611708,16.1742455 C18.145874,15.8079301 18.7227526,14.944698 18.7227526,13.987156 C18.723093,13.3593471 18.4740237,12.7571164 18.0303367,12.3129476 C17.5866497,11.8687789 16.9846896,11.6190561 16.3568807,11.6187156 L16.3568807,11.62 Z" />
  </g>
</svg>