<svg width="250" height="250" viewBox="0 0 250 250" fill="none" xmlns="http://www.w3.org/2000/svg">
    <ellipse cx="125" cy="125" rx="125" ry="125" fill="url(#paint0_linear_2_2)" />
    <path
        d="M54.9327 105.038L35.7143 124.485L43.3788 132.15L48.2978 132.035L117.85 201.817V206.85L125.286 214.286L179.509 160.291L144.39 124.943L124.828 144.504L140.386 160.062L125.057 175.391L54.9327 105.038Z"
        fill="#00E3B4" />
    <path
        d="M195.067 144.962L214.286 125.515L206.621 117.85L201.702 117.965L132.15 48.1834V43.15L124.714 35.7143L70.4905 89.709L105.61 125.057L125.172 105.496L109.614 89.9378L124.943 74.6088L195.067 144.962Z"
        fill="#00E3B4" />
    <defs>
        <linearGradient id="paint0_linear_2_2" x1="125" y1="0" x2="125" y2="250" gradientUnits="userSpaceOnUse">
            <stop stop-color="#0C2B42" />
            <stop offset="0.9999" stop-color="#000A11" stop-opacity="0.958333" />
        </linearGradient>
    </defs>
</svg>