<svg width="150" height="150" viewBox="0 0 150 150" fill="none" xmlns="http://www.w3.org/2000/svg">
<path d="M150 75C150 33.5786 116.421 0 75 0C33.5786 0 0 33.5786 0 75C0 116.421 33.5786 150 75 150C116.421 150 150 116.421 150 75Z" fill="#1B1334"/>
<path d="M92.8836 116L81.6883 96.6683C94.932 97.9886 102.133 89.2813 104.079 84.7627C110.844 63.8281 94.4317 53.0542 86.5715 53.29L41.0761 53.0542L30 33.0153H87.7624C106.818 32.4495 118.291 47.7346 122.062 55.5144C136.241 84.7627 108.763 112.778 92.8836 116Z" fill="white"/>
<path d="M84 116L72.531 96.4318H61.5351L71.8217 79.3692L60.8257 58L25 116H84Z" fill="white"/>
</svg>
