<svg xmlns="http://www.w3.org/2000/svg" width="50" height="50">
    <g clip-path="url(#clip0_1159_3592)">
        <rect width="50" height="50" rx="25" fill="#8A79FF"/>
        <g clip-path="url(#clip1_1159_3592)">
            <path fill-rule="evenodd" clip-rule="evenodd" d="M21.6973 10.4167V29.8602H39.5833V10.4167H21.6973ZM21.6973 10.417L21.6794 10.4167C15.4591 10.4167 10.4166 14.7694 10.4166 20.1388C10.4166 25.5083 15.4591 29.8611 21.6794 29.8611L21.6973 29.8608V10.417Z" fill="url(#paint0_linear_1159_3592)"/>
            <path fill-rule="evenodd" clip-rule="evenodd" d="M28.3027 20.1389V39.5824H10.4166V20.1389H28.3027ZM28.3027 20.1389H28.3205C34.5408 20.1389 39.5833 24.4917 39.5833 29.8611C39.5833 35.2305 34.5408 39.5833 28.3205 39.5833L28.3027 39.5832V20.1389Z" fill="url(#paint1_linear_1159_3592)"/>
            <path fill-rule="evenodd" clip-rule="evenodd" d="M39.5833 29.8602C39.5827 24.4912 34.5404 20.1389 28.3205 20.1389L28.3027 20.139V20.1389H21.6973H10.4166C10.4167 25.5084 15.4592 29.8611 21.6794 29.8611L21.6973 29.8608V29.8602H28.3027H39.5833Z" fill="white"/>
        </g>
    </g>
    <defs>
        <linearGradient id="paint0_linear_1159_3592" x1="10.4126" y1="20.1367" x2="39.5873" y2="20.1367" gradientUnits="userSpaceOnUse">
            <stop stop-color="white"/>
            <stop offset="1" stop-color="white" stop-opacity="0"/>
        </linearGradient>
        <linearGradient id="paint1_linear_1159_3592" x1="10.4126" y1="29.8589" x2="39.5873" y2="29.8589" gradientUnits="userSpaceOnUse">
            <stop stop-color="white" stop-opacity="0"/>
            <stop offset="1" stop-color="white"/>
        </linearGradient>
        <clipPath id="clip0_1159_3592">
            <rect width="50" height="50" fill="white"/>
        </clipPath>
        <clipPath id="clip1_1159_3592">
            <rect width="29.1667" height="29.1667" fill="white" transform="translate(10.4166 10.4167)"/>
        </clipPath>
    </defs>
</svg>