<svg width="11" height="13" viewBox="0 0 11 13" fill="none" xmlns="http://www.w3.org/2000/svg">
    <path fill-rule="evenodd" clip-rule="evenodd" d="M7.94168 12.5549C7.66826 12.8392 7.29077 13 6.89626 13H1.89906C1.09813 13 0.448853 12.3508 0.448853 11.5499V1.60324C0.448853 0.802312 1.09813 0.153034 1.89906 0.153034H8.95318C9.75411 0.153034 10.4034 0.802312 10.4034 1.60324V9.41025C10.4034 9.78498 10.2583 10.1452 9.99865 10.4153L7.94168 12.5549ZM1.89896 11.8399H6.74791V10.708C6.74791 9.90712 7.3972 9.25784 8.19812 9.25784H9.24313V1.60324L9.23724 1.54478C9.21019 1.41261 9.09326 1.3132 8.95309 1.3132H1.89896L1.8405 1.31909C1.70834 1.34613 1.60892 1.46308 1.60892 1.60324V11.5499L1.61481 11.6082C1.64185 11.7404 1.7588 11.8399 1.89896 11.8399ZM8.17931 6.04839C8.17931 6.36876 7.9196 6.62846 7.59923 6.62846H3.26936L3.19661 6.62395C2.91058 6.58815 2.68928 6.34411 2.68928 6.04839C2.68928 5.72802 2.949 5.46831 3.26936 5.46831H7.59923L7.672 5.47283C7.95802 5.50862 8.17931 5.75266 8.17931 6.04839ZM7.59923 4.20724C7.9196 4.20724 8.17931 3.94753 8.17931 3.62715C8.17931 3.33144 7.95802 3.08739 7.672 3.0516L7.59923 3.04708H3.26936C2.949 3.04708 2.68928 3.30679 2.68928 3.62715C2.68928 3.92288 2.91058 4.16692 3.19661 4.20272L3.26936 4.20724H7.59923ZM6.25598 8.46961C6.25598 8.78998 5.99628 9.04969 5.6759 9.04969H3.27833L3.20558 9.04518C2.91955 9.00938 2.69825 8.76534 2.69825 8.46961C2.69825 8.14925 2.95797 7.88953 3.27833 7.88953H5.6759L5.74867 7.89406C6.03469 7.92985 6.25598 8.17389 6.25598 8.46961Z" fill="#00E3B3"/>
</svg>
