<svg width="15" height="15" viewBox="0 0 15 15" fill="none" xmlns="http://www.w3.org/2000/svg">
<path d="M-3.27835e-07 7.5C-4.14783e-07 5.51088 0.790176 3.60322 2.1967 2.1967C3.60322 0.790175 5.51088 -1.19456e-06 7.5 -1.28151e-06C9.48912 -1.36846e-06 11.3968 0.790175 12.8033 2.1967C14.2098 3.60322 15 5.51088 15 7.5C15 9.48912 14.2098 11.3968 12.8033 12.8033C11.3968 14.2098 9.48912 15 7.5 15C5.51088 15 3.60322 14.2098 2.1967 12.8033C0.790176 11.3968 -2.40888e-07 9.48912 -3.27835e-07 7.5H-3.27835e-07ZM7.03125 10.7812C7.03125 10.9056 7.08064 11.0248 7.16854 11.1127C7.25645 11.2006 7.37568 11.25 7.5 11.25C7.62432 11.25 7.74355 11.2006 7.83146 11.1127C7.91936 11.0248 7.96875 10.9056 7.96875 10.7812L7.96875 5.35031L9.98062 7.36312C10.0242 7.40671 10.0759 7.44128 10.1329 7.46486C10.1898 7.48845 10.2509 7.50059 10.3125 7.50059C10.3741 7.50059 10.4352 7.48845 10.4921 7.46486C10.5491 7.44128 10.6008 7.40671 10.6444 7.36312C10.688 7.31954 10.7225 7.2678 10.7461 7.21086C10.7697 7.15392 10.7818 7.09288 10.7818 7.03125C10.7818 6.96961 10.7697 6.90858 10.7461 6.85164C10.7225 6.7947 10.688 6.74296 10.6444 6.69937L7.83187 3.88687C7.78833 3.84322 7.7366 3.80859 7.67966 3.78496C7.62271 3.76133 7.56166 3.74916 7.5 3.74916C7.43834 3.74916 7.37729 3.76133 7.32034 3.78496C7.26339 3.80859 7.21167 3.84322 7.16812 3.88687L4.35562 6.69937C4.31204 6.74296 4.27747 6.7947 4.25388 6.85164C4.2303 6.90858 4.21816 6.96961 4.21816 7.03125C4.21816 7.09288 4.2303 7.15392 4.25388 7.21086C4.27747 7.2678 4.31204 7.31954 4.35562 7.36312C4.39921 7.40671 4.45095 7.44128 4.50789 7.46487C4.56483 7.48845 4.62586 7.50059 4.6875 7.50059C4.74913 7.50059 4.81017 7.48845 4.86711 7.46486C4.92405 7.44128 4.97579 7.40671 5.01937 7.36312L7.03125 5.35031L7.03125 10.7812Z" fill="#007CC2"/>
</svg>
