<svg width="15" height="15" viewBox="0 0 15 15" fill="none" xmlns="http://www.w3.org/2000/svg">
<path d="M15 7.5C15 9.48912 14.2098 11.3968 12.8033 12.8033C11.3968 14.2098 9.48912 15 7.5 15C5.51088 15 3.60322 14.2098 2.1967 12.8033C0.790177 11.3968 5.38892e-07 9.48912 6.25839e-07 7.5C7.12786e-07 5.51088 0.790177 3.60322 2.1967 2.1967C3.60322 0.790176 5.51088 -4.14783e-07 7.5 -3.27835e-07C9.48912 -2.40888e-07 11.3968 0.790176 12.8033 2.1967C14.2098 3.60322 15 5.51088 15 7.5V7.5ZM7.96875 4.21875C7.96875 4.09443 7.91936 3.9752 7.83146 3.88729C7.74355 3.79939 7.62432 3.75 7.5 3.75C7.37568 3.75 7.25645 3.79939 7.16854 3.88729C7.08064 3.9752 7.03125 4.09443 7.03125 4.21875L7.03125 9.64969L5.01938 7.63688C4.97579 7.59329 4.92405 7.55872 4.86711 7.53513C4.81017 7.51155 4.74914 7.49941 4.6875 7.49941C4.62587 7.49941 4.56483 7.51155 4.50789 7.53513C4.45095 7.55872 4.39921 7.59329 4.35562 7.63688C4.31204 7.68046 4.27747 7.7322 4.25388 7.78914C4.2303 7.84608 4.21816 7.90711 4.21816 7.96875C4.21816 8.03038 4.2303 8.09142 4.25388 8.14836C4.27747 8.2053 4.31204 8.25704 4.35562 8.30063L7.16813 11.1131C7.21167 11.1568 7.2634 11.1914 7.32034 11.215C7.37729 11.2387 7.43834 11.2508 7.5 11.2508C7.56166 11.2508 7.62271 11.2387 7.67966 11.215C7.73661 11.1914 7.78833 11.1568 7.83187 11.1131L10.6444 8.30063C10.688 8.25704 10.7225 8.2053 10.7461 8.14836C10.7697 8.09142 10.7818 8.03038 10.7818 7.96875C10.7818 7.90712 10.7697 7.84608 10.7461 7.78914C10.7225 7.7322 10.688 7.68046 10.6444 7.63688C10.6008 7.59329 10.5491 7.55872 10.4921 7.53513C10.4352 7.51155 10.3741 7.49941 10.3125 7.49941C10.2509 7.49941 10.1898 7.51155 10.1329 7.53513C10.0759 7.55872 10.0242 7.59329 9.98062 7.63688L7.96875 9.64969L7.96875 4.21875Z" fill="#00E3B4"/>
</svg>
